<?xml version="1.0" standalone="no"?>
<svg version="1.0" xmlns="http://www.w3.org/2000/svg"
 x="0px" y="0px"
	 width="100%" viewBox="200 200 550 608" enable-background="new 0 0 608 608" xml:space="preserve">

<g transform="translate(0.000000,1024.000000) scale(0.100000,-0.100000)"
fill="#000000" stroke="none">
<path d="M4050 8393 c-14 -2 -58 -21 -99 -40 -139 -66 -282 -237 -391 -465
-64 -135 -109 -272 -117 -355 -4 -46 -9 -61 -14 -48 -12 31 -9 153 5 233 7 39
12 72 10 72 -9 0 -82 -144 -101 -200 -25 -74 -26 -72 -13 24 15 99 59 200 145
328 55 83 71 114 60 116 -24 5 -227 -26 -355 -55 -166 -36 -327 -84 -475 -141
l-130 -49 1 -219 c0 -242 11 -316 65 -472 69 -193 160 -341 333 -542 164 -190
213 -300 205 -467 -2 -29 0 -55 4 -59 9 -9 105 24 167 59 102 56 183 131 252
234 23 35 45 60 49 55 5 -4 22 -48 38 -98 l31 -92 0 -411 0 -411 -85 -105
c-122 -150 -169 -229 -236 -395 -83 -206 -121 -415 -118 -644 3 -230 31 -363
129 -607 114 -282 150 -381 175 -477 40 -153 58 -301 53 -439 -4 -120 -3 -123
18 -123 45 0 160 107 218 204 29 49 37 56 42 40 111 -307 287 -530 544 -688
74 -46 256 -124 265 -114 3 3 -10 36 -29 74 -45 89 -66 178 -66 284 l0 85 24
-68 c33 -91 86 -194 143 -275 56 -79 185 -211 265 -271 l57 -43 58 39 c79 52
208 182 270 274 64 94 129 221 147 291 l15 53 0 -82 c1 -102 -21 -209 -59
-292 -17 -35 -30 -65 -30 -67 0 -7 146 49 205 79 217 109 406 301 519 527 24
47 53 113 66 148 12 34 24 62 25 62 1 0 18 -26 38 -58 20 -31 51 -73 69 -93
40 -44 125 -109 142 -109 10 0 14 40 19 163 8 249 61 461 187 757 32 74 71
174 88 221 119 336 121 699 7 1036 -75 220 -150 356 -288 518 l-77 90 0 405
c0 439 3 467 55 571 l26 50 39 -59 c62 -96 174 -201 260 -244 41 -21 94 -42
118 -47 l42 -9 0 72 c0 170 55 288 208 455 200 217 297 390 373 667 18 68 22
114 26 320 l5 241 -108 46 c-206 86 -416 144 -655 182 -172 27 -209 30 -209
17 0 -4 30 -51 66 -103 36 -52 76 -115 89 -140 28 -54 65 -193 64 -241 0 -28
-3 -24 -23 34 -21 60 -96 202 -103 195 -1 -2 4 -27 12 -57 17 -70 26 -199 16
-236 -6 -25 -8 -20 -14 34 -9 84 -46 192 -118 338 -108 223 -214 358 -346 444
-323 212 -641 -19 -670 -488 -5 -89 -8 -102 -22 -97 -9 4 -70 18 -136 32 -96
20 -161 26 -324 30 -228 6 -359 -5 -511 -43 -52 -13 -96 -24 -97 -24 -2 0 -3
21 -3 48 0 61 -25 205 -50 285 -41 133 -132 247 -240 300 -54 27 -77 32 -140
34 -41 1 -86 -1 -100 -4z m2157 -133 c138 -61 276 -233 342 -429 31 -91 51
-237 51 -376 0 -142 21 -291 50 -360 20 -49 20 -49 0 -25 -66 83 -116 221
-166 460 -50 239 -114 425 -181 523 -51 77 -139 154 -214 191 -67 32 -70 35
-43 39 45 7 115 -3 161 -23z m-2038 -4 c-71 -29 -102 -51 -165 -117 -90 -96
-160 -249 -207 -454 -70 -304 -91 -384 -119 -454 -29 -74 -85 -181 -94 -181
-3 0 0 9 6 20 35 65 52 179 61 395 6 162 13 241 28 300 57 230 214 443 369
500 20 7 69 14 107 14 l70 1 -56 -24z m-850 -350 c-2 -2 -69 -32 -149 -66 -80
-34 -198 -89 -262 -122 -107 -54 -118 -62 -123 -91 -9 -50 -11 -318 -2 -362
12 -61 -8 -24 -39 70 -22 68 -27 105 -31 237 l-6 158 69 31 c100 46 317 115
404 129 41 6 82 13 90 15 24 5 54 5 49 1z m3796 -28 c96 -19 235 -67 359 -122
l58 -27 -4 -162 c-4 -141 -9 -173 -32 -244 -15 -46 -28 -83 -30 -83 -1 0 -1
46 1 103 2 56 1 149 -4 206 l-8 105 -70 38 c-38 21 -153 74 -255 119 -102 44
-194 85 -205 89 -31 14 74 2 190 -22z m-2543 -558 c125 -47 246 -158 306 -279
l37 -75 0 -142 c0 -85 -4 -147 -11 -155 -6 -8 -17 -33 -24 -57 -18 -57 -27
-60 -40 -14 -5 22 -33 73 -61 115 -51 77 -80 109 -65 71 29 -68 33 -241 7
-267 -8 -8 -11 -4 -11 15 0 52 -70 166 -144 235 -126 116 -231 163 -365 163
-102 0 -119 -13 -37 -28 56 -11 156 -45 156 -54 0 -2 -25 -1 -56 1 -72 4 -164
-14 -230 -45 -95 -45 -191 -177 -213 -295 l-8 -44 -12 29 c-15 38 -12 194 5
259 35 132 130 245 241 287 68 26 190 36 253 22 24 -6 46 -9 49 -7 2 3 -27 19
-65 37 -58 27 -83 33 -159 36 -61 3 -109 -1 -150 -12 -32 -8 -61 -14 -63 -12
-6 7 84 74 138 102 52 27 62 29 180 29 l125 0 86 -42 c51 -25 111 -65 144 -95
48 -44 57 -48 50 -28 -19 62 -66 128 -144 203 l-86 80 58 -6 c31 -4 80 -16
109 -27z m1243 7 c-99 -74 -172 -165 -195 -248 -9 -30 -8 -29 43 17 164 148
385 187 558 99 37 -19 122 -85 117 -91 -2 -2 -28 3 -58 11 -116 31 -271 12
-370 -46 -19 -11 -26 -18 -16 -14 46 14 169 17 228 5 164 -32 272 -138 317
-314 24 -90 26 -161 9 -238 l-11 -53 -11 55 c-41 199 -216 340 -420 340 -33 0
-56 3 -53 6 3 4 48 19 99 34 93 28 93 28 54 35 -52 10 -160 0 -221 -20 -73
-25 -152 -79 -222 -153 -64 -68 -88 -108 -119 -203 l-18 -54 -8 40 c-13 72 -8
168 11 225 l19 55 -34 -39 c-30 -35 -88 -141 -111 -205 -8 -22 -12 -16 -37 53
-41 117 -50 183 -37 274 21 144 111 283 239 369 56 37 194 82 252 82 l25 0
-30 -22z m-1440 -792 c30 -29 31 -49 5 -75 -38 -38 -110 -14 -110 38 0 18 46
62 65 62 9 0 27 -11 40 -25z m1583 9 c43 -30 20 -106 -32 -106 -58 0 -86 62
-46 102 24 24 48 25 78 4z m-1788 -167 c0 -37 46 -93 95 -117 85 -41 177 -7
227 85 21 40 28 46 34 32 10 -28 -3 -87 -30 -127 -34 -52 -86 -75 -167 -75
-55 0 -72 5 -107 27 -23 16 -49 39 -57 52 -20 30 -30 87 -21 120 8 32 26 34
26 3z m1604 -62 c29 -37 99 -75 139 -75 69 0 146 59 163 124 9 37 22 42 30 11
19 -77 -65 -188 -153 -201 -125 -19 -233 62 -233 173 0 48 12 64 22 28 3 -14
18 -41 32 -60z m-949 -317 c38 -11 39 -12 15 -19 -14 -4 -41 -7 -60 -8 -41 -1
-189 -51 -277 -92 -130 -62 -259 -182 -313 -293 -18 -37 -37 -99 -46 -150 -15
-84 -14 -133 1 -91 89 247 335 435 568 435 64 0 188 -25 227 -46 25 -13 24
-13 -15 -14 -22 0 -85 -7 -140 -15 -82 -13 -119 -24 -205 -66 -91 -45 -116
-63 -190 -138 -92 -93 -134 -162 -170 -276 -28 -91 -37 -240 -20 -331 14 -75
23 -70 35 19 15 116 126 273 246 350 50 32 164 77 194 77 8 0 14 -29 18 -81 8
-102 33 -156 106 -230 44 -43 70 -60 120 -77 36 -12 82 -22 103 -22 l38 0 0
-73 0 -72 -60 -12 c-81 -15 -179 -62 -255 -123 l-63 -50 33 78 c18 44 43 98
54 121 12 22 17 41 12 41 -16 0 -106 -76 -155 -131 -58 -67 -157 -264 -190
-379 -69 -244 -77 -558 -20 -785 25 -101 64 -217 90 -268 13 -27 24 -52 24
-55 0 -4 -40 35 -89 85 -76 79 -97 109 -145 205 -93 189 -128 368 -114 583 13
199 79 467 149 607 46 91 37 100 -32 33 -169 -167 -264 -357 -309 -620 -34
-202 -22 -504 26 -625 25 -62 -13 -5 -57 85 -111 231 -145 547 -94 886 9 56
14 104 12 106 -6 6 -36 -32 -57 -73 -19 -37 -20 -37 -16 -9 3 17 8 64 11 105
6 71 5 74 -11 55 -27 -33 -93 -176 -108 -235 -37 -147 -54 -434 -33 -580 16
-118 -50 61 -80 215 -23 120 -23 384 0 510 32 171 92 340 181 510 74 142 128
221 259 375 62 74 148 188 191 252 88 135 164 204 287 263 111 53 234 69 324
43z m805 -3 c161 -43 324 -173 423 -340 23 -38 93 -128 155 -200 63 -71 142
-173 177 -225 124 -187 227 -429 272 -640 25 -120 25 -439 0 -560 -18 -84 -66
-234 -73 -227 -2 2 0 37 6 78 28 215 -12 501 -92 666 -60 125 -70 127 -63 12
l6 -94 -21 42 c-21 41 -50 64 -50 40 0 -7 8 -52 17 -102 23 -129 24 -438 0
-560 -25 -126 -51 -203 -110 -327 -52 -111 -69 -134 -42 -58 35 99 48 226 42
414 -5 160 -9 194 -36 294 -59 216 -144 375 -269 501 -46 45 -86 81 -88 78 -3
-3 6 -27 19 -54 157 -310 208 -795 113 -1072 -50 -144 -143 -292 -243 -385
l-53 -49 25 58 c41 92 82 224 106 336 19 92 20 126 16 304 -4 168 -9 217 -31
309 -31 130 -98 301 -150 378 -47 72 -154 187 -195 211 -35 20 -38 17 -16 -16
12 -18 95 -213 95 -223 0 -1 -17 14 -37 33 -85 77 -221 149 -304 160 -36 5
-37 6 -43 57 -11 96 -13 93 54 99 117 10 234 86 279 181 22 44 46 197 36 224
-8 22 35 9 142 -44 170 -82 287 -231 316 -400 6 -35 14 -64 17 -64 11 0 30
130 30 203 0 87 -29 210 -67 286 -36 69 -124 173 -198 233 -71 58 -220 133
-293 149 -28 6 -91 14 -140 17 l-87 7 65 25 c55 21 82 25 175 25 128 0 188
-15 284 -72 127 -76 227 -187 288 -320 14 -29 26 -53 27 -53 5 0 -15 137 -26
170 -37 117 -152 262 -262 328 -118 72 -342 152 -422 152 -36 0 -20 17 21 23
54 8 159 4 205 -8z m-295 -454 c70 -32 89 -62 93 -144 l4 -72 -40 45 -40 45
-223 0 c-243 -1 -256 -3 -289 -57 -17 -29 -18 -29 -25 -8 -12 37 4 108 33 141
49 59 87 69 277 69 144 0 176 -3 210 -19z m-325 -363 c0 -73 -54 -91 -112 -38
l-33 29 32 1 c22 0 40 9 59 30 33 34 54 26 54 -22z m270 45 c1 -22 34 -47 67
-52 l38 -7 -27 -27 c-29 -29 -87 -37 -106 -14 -21 26 -24 58 -8 82 16 24 36
33 36 18z m-55 -628 c89 -24 153 -62 236 -145 62 -61 85 -92 122 -170 74 -153
82 -195 82 -415 -1 -164 -4 -202 -23 -280 -42 -165 -47 -164 -47 7 0 178 -16
247 -89 401 -74 156 -71 162 -71 -140 0 -243 -2 -278 -23 -378 -37 -171 -88
-327 -143 -438 -52 -103 -133 -227 -149 -227 -8 0 -77 100 -122 180 -46 81
-116 272 -142 391 -47 210 -71 572 -47 696 11 56 0 47 -49 -41 -81 -148 -112
-273 -113 -459 -1 -75 -4 -131 -8 -125 -16 31 -51 199 -61 299 -29 289 47 543
212 710 129 130 275 175 435 134z"/>
</g>
</svg>
