<svg version="1.1" id="Layer_1" xmlns="http://www.w3.org/2000/svg" xmlns:xlink="http://www.w3.org/1999/xlink" x="0px" y="0px"
	 width="24px" height="24px" viewBox="0 0 608 608" enable-background="new 0 0 608 608" xml:space="preserve">
<path fill="#000000" opacity="1.000000" stroke="none" 
	d="
M320.670410,485.066620 
	C320.938599,467.004425 317.149536,450.226593 310.532776,434.039734 
	C301.677429,412.376678 300.610779,389.966797 304.998352,367.342438 
	C307.071167,356.654144 312.351868,347.006531 319.583679,338.688263 
	C322.442261,335.400177 326.063690,333.191864 331.146393,332.557617 
	C331.395477,340.183014 329.061829,347.611481 332.853119,354.356995 
	C334.121796,354.112579 333.907196,352.319733 335.778473,352.884705 
	C337.168640,359.081207 337.345154,365.951141 340.212494,372.164124 
	C341.569122,372.623505 341.344879,370.682983 342.944489,370.760925 
	C345.081116,373.169739 345.164612,376.931366 347.002228,379.782379 
	C347.906189,381.184906 347.484375,384.850281 351.077209,382.540070 
	C351.685394,382.149048 352.067383,383.118652 352.503723,383.590576 
	C356.519623,387.934296 361.041748,391.808746 364.532959,396.642822 
	C364.880066,397.123413 365.532684,397.383362 366.058380,397.756256 
	C367.929016,396.008881 366.292755,393.251740 368.528229,391.516968 
	C371.433716,396.288605 373.955475,401.367523 378.797272,404.457855 
	C381.672852,403.515869 381.907867,400.447479 384.101440,398.833008 
	C385.424805,399.686920 386.754028,400.897308 388.430176,398.822815 
	C391.103912,395.513611 394.897736,393.332916 397.856354,390.162201 
	C399.572510,388.323029 401.730591,386.437164 403.304108,384.136658 
	C404.408142,382.522491 405.184540,384.999023 406.317932,384.479889 
	C407.371429,382.113098 408.435089,379.723541 409.388916,377.580688 
	C411.391846,377.063202 410.974396,378.779907 411.572571,379.185181 
	C415.626221,372.342773 422.952087,367.148254 421.579590,358.164551 
	C424.431824,357.682343 423.730011,359.691772 424.725250,360.385498 
	C427.002045,358.388062 426.722107,354.933563 428.445282,352.893829 
	C430.579895,352.890808 429.683899,354.879150 430.859741,355.423889 
	C434.081268,352.776947 433.804504,348.167450 436.269318,345.086243 
	C438.229523,346.159637 436.474152,348.495483 438.408417,349.633972 
	C442.347321,343.609802 444.036469,337.079956 443.925354,329.917664 
	C443.901550,328.381592 442.068665,325.177917 446.208832,325.346710 
	C446.333862,325.351807 446.663391,323.880920 446.651001,323.102081 
	C446.598206,319.779449 446.719696,316.470734 446.222626,313.136963 
	C445.358521,307.341583 444.489716,301.938293 448.237335,296.092438 
	C452.981232,288.692444 449.574280,282.811035 441.479553,279.292603 
	C423.433167,271.448608 406.267700,261.893402 389.811981,251.089813 
	C385.627045,248.342331 385.931335,243.938568 387.250214,240.307510 
	C388.454834,236.991043 392.190613,237.997665 395.176666,238.369431 
	C403.861053,239.450653 411.120148,242.248825 412.906982,252.179199 
	C413.050385,252.976166 413.663055,253.665039 415.337860,253.834473 
	C417.573029,250.076950 417.110870,245.786942 416.130737,241.769318 
	C413.056396,229.166962 403.862061,222.357880 392.385895,218.240173 
	C385.446014,215.750122 378.073792,215.237076 370.722290,215.344589 
	C366.883118,215.400726 363.823273,214.178802 360.649353,211.899094 
	C352.402069,205.975357 343.860657,200.448395 335.285828,195.000458 
	C332.371185,193.148666 330.899628,191.148529 330.515930,187.528595 
	C329.634308,179.210907 330.819977,171.341370 333.489227,163.491455 
	C335.143066,158.627670 336.338715,153.577881 337.347168,148.533051 
	C338.429291,143.119720 337.187012,138.137512 332.668579,132.368637 
	C332.102997,147.767365 320.284821,154.817444 313.420166,165.397888 
	C315.836426,150.382004 320.106812,135.562378 311.780762,120.794144 
	C311.103516,121.679375 310.549011,122.067711 310.562378,122.435417 
	C311.021515,135.072678 302.527924,141.924271 293.643127,148.389282 
	C278.251831,159.588760 267.677094,174.096985 263.111877,192.659470 
	C261.729340,198.280960 261.151672,204.107330 260.341003,209.859009 
	C260.027435,212.084061 259.528625,214.074234 257.657593,215.532364 
	C223.203629,242.382568 203.928452,279.301300 189.035080,319.107056 
	C185.477524,328.615417 182.062134,338.177643 178.647430,347.738647 
	C174.931091,358.144257 167.284363,365.221344 158.582764,371.319153 
	C142.418930,382.646210 124.930283,391.549896 106.861946,399.410522 
	C103.263718,400.975952 101.943069,399.854675 100.554024,396.619904 
	C90.010780,372.067474 84.046471,346.524811 82.515007,319.809937 
	C79.821686,272.827911 90.476776,229.120193 115.225601,189.269226 
	C149.908981,133.421463 199.875015,98.167152 264.469940,86.277214 
	C341.636932,72.073135 409.487091,92.924980 465.791779,147.713501 
	C502.296967,183.235687 523.819214,227.201096 530.021484,277.796631 
	C538.286804,345.221466 520.121704,405.316223 475.243805,456.399017 
	C439.422028,497.173615 393.983795,521.354431 340.159180,529.458008 
	C333.735687,530.425110 327.313873,531.176392 320.814362,531.500854 
	C316.895294,531.696533 315.480682,531.171448 316.306946,526.649170 
	C318.786499,513.077942 320.871246,499.423248 320.670410,485.066620 
z"/>
</svg>